<?xml version="1.0" encoding="UTF-8"?><svg id="Layer_1" xmlns="http://www.w3.org/2000/svg" width=".2in" height=".2in" viewBox="0 0 16 16"><circle cx="7.9" cy="8" r="5.6" fill="none" stroke="#28a9e1" stroke-miterlimit="10" stroke-width=".3"/><path d="m2.1,8s5.9,1.6,11.4-.3" fill="none" stroke="#28a9e1" stroke-miterlimit="10" stroke-width=".3"/><path d="m4,4s1.3,1.5,4.2,1.5c0,0,1.8,0,3.6-1.5" fill="none" stroke="#28a9e1" stroke-miterlimit="10" stroke-width=".3"/><path d="m4,12s1.3-1.5,4.2-1.5c0,0,1.8,0,3.6,1.5" fill="none" stroke="#28a9e1" stroke-miterlimit="10" stroke-width=".3"/><path d="m7.8,2.4s-3.1,1.6-3,5.5c0,0,0,3.7,3.1,5.6" fill="none" stroke="#28a9e1" stroke-miterlimit="10" stroke-width=".3"/><path d="m8,2.4s3.1,1.6,3,5.5c0,0,0,3.7-3.1,5.6" fill="none" stroke="#28a9e1" stroke-miterlimit="10" stroke-width=".3"/><circle cx="7.9" cy="6.8" r=".9" fill="#eadcb8"/><path d="m8.6,9c1-.8,1.3-2.8,1.3-2.8-.9,1.6-1.4,1.7-2,1.7-1.3,0-2-1.9-2-1.9,0,1.8,1.3,3,1.3,3,0,0,0,3.2.6,4.5h.3c.5-1.9.6-4.6.6-4.6Z" fill="#eadcb8"/><circle cx="13.3" cy="6.2" r=".9" fill="#8cd4da"/><path d="m11.5,6.1s1.2,1.5,2.3,1.2c0,0,.9,0,1.3-1.1,0,0,.2.9-.6,1.8,0,0,0,3.2-3.7,4.9,0,0,2.4-2.6,2.4-4.7,0,0-1.2-.4-1.7-2.1Z" fill="#8cd4da"/><circle cx="2.4" cy="6.2" r=".9" fill="#28a9e1"/><path d="m4.5,6.1s-1.2,1.5-2.3,1.2c0,0-.9,0-1.3-1.1,0,0-.2.9.6,1.8,0,0,0,3.2,3.7,4.9,0,0-2.4-2.6-2.4-4.7,0,0,1.2-.4,1.7-2.1Z" fill="#28a9e1"/></svg>