<?xml version="1.0" encoding="UTF-8"?><svg id="Layer_1" xmlns="http://www.w3.org/2000/svg" width="2.8in" height="2.8in" viewBox="0 0 200 200"><circle cx="99.3" cy="100" r="59.4" fill="none" stroke="#28a9e1" stroke-miterlimit="10" stroke-width="3"/><path d="m36.9,99.9s62.4,16.5,121.7-3.2" fill="none" stroke="#28a9e1" stroke-miterlimit="10" stroke-width="3"/><path d="m57.7,57.6s13.8,16.3,44.5,16.3c0,0,19.3,0,38.5-16.3" fill="none" stroke="#28a9e1" stroke-miterlimit="10" stroke-width="3"/><path d="m57.7,142.6s13.8-16.3,44.5-16.3c0,0,19.3,0,38.5,16.3" fill="none" stroke="#28a9e1" stroke-miterlimit="10" stroke-width="3"/><path d="m97.8,40.6s-33.3,16.6-32.4,59.1c0,0-.2,39.2,33.5,59.6" fill="none" stroke="#28a9e1" stroke-miterlimit="10" stroke-width="3"/><path d="m100,40.7s33.3,16.6,32.4,59.1c0,0,.4,39-33.5,59.6" fill="none" stroke="#28a9e1" stroke-miterlimit="10" stroke-width="3"/><circle cx="98.9" cy="87.2" r="9.5" fill="#eadcb8"/><path d="m106.8,110.8c10.8-8.2,13.5-29.8,13.5-29.8-9.1,16.8-15,17.8-21.4,18.3-13.5,1.1-21.4-20-21.4-20-.5,19,13.5,32,13.5,32,0,0,1,34.2,6.4,48h3.1c5.1-20.1,6.4-48.5,6.4-48.5Z" fill="#eadcb8"/><circle cx="156.4" cy="81" r="9.5" fill="#8cd4da"/><path d="m137.3,80.2s12.9,16.5,24.6,12.8c0,0,9.6.4,13.5-12.1,0,0,2.3,9.5-6.3,19.7,0,0,0,33.8-39.2,52,0,0,25.7-27.6,25.6-50.3,0,0-12.6-4.5-18.3-22.2Z" fill="#8cd4da"/><circle cx="40.3" cy="81" r="9.5" fill="#28a9e1"/><path d="m62.7,80.2s-12.9,16.5-24.6,12.8c0,0-9.6.4-13.5-12.1,0,0-2.3,9.5,6.3,19.7,0,0,0,33.8,39.2,52,0,0-25.7-27.6-25.6-50.3,0,0,12.6-4.5,18.3-22.2Z" fill="#28a9e1"/><path d="m39.2,60c-.3.5-.3.8,0,1v.2c-.1,0-2.8-1.7-2.8-1.7v-.2c.6.3,1,.2,1.3-.3l2.7-4.2.3.2c0,.1-.1.3,0,.3,0,0,.2.2.4.4l2,1.3c.3.2.4.2.6.2.1,0,.2,0,.3-.2l.3.2c.3,1.5.3,2.8,0,4-.3,1.2-.7,2.2-1.2,3-.5.9-1.2,1.6-1.9,2.1s-1.5.9-2.4,1.1c-.9.2-1.8.2-2.7,0-.9-.2-1.8-.5-2.7-1.1-.9-.6-1.6-1.2-2.2-2s-1-1.6-1.2-2.5c-.2-.9-.3-1.8-.2-2.7.1-.9.5-1.8,1-2.6.5-.8,1.1-1.5,1.6-2,.5-.5,1-.8,1.4-1.1.4-.2.8-.4,1.1-.5.3-.1.5-.2.5-.3,0-.1,0-.2,0-.3,0,0,0-.2-.1-.3h.3c0-.1,1.5,2.7,1.5,2.7h-.3s-.1,0-.2-.1c-.1,0-.4,0-.7,0-.3,0-.7.2-1.1.4-.4.2-.8.5-1.3.9-.4.4-.8.9-1.2,1.4-.5.7-.7,1.4-.8,2.1s0,1.3.2,2c.2.6.5,1.2,1,1.7.4.5,1,1,1.6,1.3.7.5,1.5.8,2.2.9.7.1,1.4.1,2,0,.6-.1,1.2-.4,1.7-.7.5-.4.9-.8,1.3-1.3.5-.9.9-1.7,1.1-2.6s.2-1.6,0-2.3l-1.7-1.1-1.4,2.3Z" fill="#2797c8"/><path d="m38.3,47.2c-.1.2-.2.3-.2.5,0,.1.2.3.3.5l8.4,7.6,5.2-5.8c.4-.4.3-.8,0-1.1l.2-.2,2.3,2.1-.2.2c-.3-.2-.6-.1-.9.3l-6.9,7.6-.2-.2c.1-.2.2-.3.2-.4,0-.1-.1-.3-.3-.4l-9.1-8.2c-.1-.1-.3-.2-.4-.2s-.3,0-.4.2l-.2-.2,2.1-2.3.2.2Z" fill="#2797c8"/><path d="m49.8,35.7c.8-.6,1.6-1.1,2.5-1.3.9-.3,1.7-.4,2.6-.2.9.1,1.7.4,2.6.9.8.5,1.6,1.2,2.3,2.1s1.2,1.9,1.5,2.8c.3.9.3,1.8.2,2.7-.1.9-.4,1.7-.9,2.4s-1.1,1.4-1.9,2.1c-.8.6-1.6,1.1-2.5,1.3-.9.3-1.7.4-2.6.3-.9-.1-1.7-.4-2.5-.9-.8-.5-1.6-1.2-2.3-2.1s-1.2-1.9-1.5-2.8c-.3-.9-.4-1.8-.2-2.7s.4-1.7.9-2.5c.5-.8,1.1-1.5,1.9-2.1Zm1.1,1.5c-1.3,1-1.9,2.1-2,3.4,0,1.3.4,2.6,1.4,3.9s2.2,2.1,3.4,2.4c1.3.2,2.5-.1,3.8-1.1,1.3-1,1.9-2.1,2-3.4,0-1.3-.4-2.6-1.4-3.9s-2.2-2.1-3.5-2.4c-1.3-.2-2.5.1-3.8,1.1Z" fill="#2797c8"/><path d="m58.9,30.7c0-.2-.2-.3-.3-.4-.1,0-.3,0-.5,0v-.3c-.1,0,7-3.5,7-3.5.7-.3,1.3-.5,1.8-.6.5,0,1,0,1.5.1.4.2.8.4,1.2.7.3.3.6.7.8,1.2.3.6.5,1.2.5,1.8s-.3,1.1-.7,1.6h0c.7,0,1.3,0,1.9.4s1.1,1,1.5,1.8c.6,1.2.7,2.3.4,3.2s-1.2,1.8-2.7,2.5l-7,3.5v-.3c0,0,.2-.2.2-.4,0-.1,0-.3-.1-.5l-5.4-11Zm8.6,1c.8-.4,1.3-.8,1.4-1.2.2-.4.1-.9-.2-1.5-.3-.6-.6-.9-1.1-1-.4-.1-1.1,0-1.9.4l-4.8,2.4,1.7,3.3,4.8-2.4Zm3.4,5.7c.7-.3,1.1-.8,1.2-1.3.2-.5,0-1.1-.3-1.8-.3-.7-.8-1.1-1.3-1.3-.5-.2-1.1-.1-1.8.2l-5.2,2.6,2.1,4.2,5.2-2.6Z" fill="#2797c8"/><path d="m77.4,35.1c0,.2,0,.4,0,.6,0,.2,0,.4,0,.5,0,.2.2.3.5.2v.3c0,0-2.7.7-2.7.7v-.3s0,0,.1,0c0,0,.1-.1.1-.2,0-.1,0-.2.1-.4,0-.2,0-.4.1-.7l1.2-11.6c0-.3,0-.6,0-.7,0-.2,0-.3,0-.4,0-.2-.2-.3-.5-.2v-.3c0,0,3.2-.9,3.2-.9v.3c-.2,0-.2.2-.2.4,0,.1.1.2.2.4.1.1.3.4.5.6l7.1,9.2c.2.3.4.5.5.6.1.2.2.3.3.3,0,0,.2.1.3,0,0,0,.2,0,.3,0v.3c0,0-3,.8-3,.8v-.3c0,0,.2-.1.3-.2,0,0,0-.2,0-.3,0,0,0-.2-.1-.3,0,0-.2-.3-.4-.6l-1.4-1.9-6.4,1.7-.2,2.3Zm5.3-5.5l-4.2-5.5-.7,6.8,4.9-1.3Z" fill="#2797c8"/><path d="m91.6,19.7c-.2,0-.4,0-.4.2,0,.1,0,.3,0,.6l.8,11.3,7.8-.6c.5,0,.8-.3.8-.9h.3s.2,3.1.2,3.1h-.3c0-.3-.3-.5-.8-.4l-10.3.7v-.3c.2,0,.3,0,.4-.2s0-.3,0-.5l-.9-12.2c0-.2,0-.4-.1-.5s-.2-.2-.5-.1v-.3s3-.2,3-.2v.3Z" fill="#2797c8"/><path d="m102.1,33c.2,0,.4,0,.5-.1,0-.1.1-.3.1-.5l.8-12.2c0-.2,0-.4,0-.5,0-.1-.2-.2-.4-.2v-.3s3.1.2,3.1.2v.3c-.2,0-.4,0-.5.1,0,.1-.1.3-.1.5l-.8,12.2c0,.2,0,.4,0,.5,0,.1.2.2.4.2v.3s-3.1-.2-3.1-.2v-.3Z" fill="#2797c8"/><path d="m110.2,21.4c-.3,0-.5,0-.6,0-.1,0-.2.2-.3.5h-.3c0,0,.6-3.2.6-3.2h.3c0,.5.1.8.7.9l10,2v.2s-10.3,10.4-10.3,10.4l6.8,1.3c.5.1.8,0,.9-.6h.3c0,0-.6,3.2-.6,3.2h-.3c0-.3,0-.5,0-.6-.1,0-.3-.2-.6-.2l-10-2v-.3c0,0,10-10.4,10-10.4l-6.6-1.3Z" fill="#2797c8"/><path d="m120.6,34.9c-.1.1-.2.3-.4.4-.1.2-.2.3-.3.4,0,.2,0,.3.3.4v.3c-.1,0-2.8-1.1-2.8-1.1v-.3c.2,0,.3,0,.4,0,0,0,.2,0,.2,0,0,0,.2-.2.3-.3.1-.1.3-.3.5-.5l7.9-8.6c.2-.2.4-.4.5-.5.1-.1.2-.2.2-.3,0-.2,0-.4-.3-.5v-.3c.1,0,3.3,1.3,3.3,1.3v.3c-.4,0-.5,0-.6.2,0,.1,0,.2,0,.4,0,.2,0,.4,0,.8l.2,11.6c0,.4,0,.6,0,.8,0,.2,0,.3,0,.5,0,.1,0,.2.1.2,0,0,.2,0,.3.1v.3c-.1,0-3.1-1.2-3.1-1.2v-.3c.3,0,.4,0,.5,0,0,0,.1-.1.2-.2,0,0,0-.2,0-.3,0-.1,0-.3,0-.7v-2.3s-6.1-2.4-6.1-2.4l-1.5,1.7Zm7.6-1.2v-6.9c0,0-4.7,5-4.7,5l4.7,1.9Z" fill="#2797c8"/><path d="m131.6,41.2c.2.1.3.1.5,0,.1,0,.2-.2.3-.4l5.8-9.9-3.4-2c-.3-.1-.5-.2-.6-.2-.2,0-.3.2-.4.4h-.2c0-.1,1.6-2.9,1.6-2.9h.2c-.2.5-.1.9.3,1.2l8.4,4.9c.5.3.8.2,1.1-.2h.2c0,.1-1.6,2.9-1.6,2.9h-.2c.1-.4.2-.6.1-.7,0-.1-.2-.3-.5-.4l-3.4-2-5.8,9.9c-.1.2-.1.3-.1.5,0,.1.1.3.3.4l-.2.3-2.7-1.5.2-.3Z" fill="#2797c8"/><path d="m138.2,45.3c.2.1.3.2.5.1.1,0,.3-.1.4-.3l7.4-9.8c.1-.2.2-.3.2-.4s0-.3-.2-.4l.2-.3,2.5,1.8-.2.3c-.2-.1-.3-.2-.5-.1s-.3.2-.4.3l-7.4,9.8c-.1.2-.2.3-.2.4,0,.1,0,.3.2.4l-.2.3-2.5-1.8.2-.3Z" fill="#2797c8"/><path d="m156.6,42.6c.7.7,1.3,1.5,1.6,2.3.4.8.6,1.7.6,2.6,0,.9-.2,1.8-.6,2.7s-1,1.7-1.8,2.6c-.8.8-1.7,1.4-2.6,1.8-.9.4-1.8.6-2.6.6-.9,0-1.7-.2-2.5-.6s-1.6-.9-2.3-1.7c-.7-.7-1.3-1.5-1.7-2.3-.4-.8-.6-1.7-.6-2.5,0-.9.2-1.8.6-2.6s1-1.7,1.8-2.6c.8-.8,1.7-1.4,2.6-1.8.9-.4,1.8-.6,2.7-.6.9,0,1.7.2,2.6.6.8.4,1.6.9,2.3,1.6Zm-1.3,1.3c-1.1-1.1-2.3-1.6-3.6-1.6-1.3,0-2.5.7-3.7,1.9-1.2,1.2-1.8,2.4-1.9,3.7,0,1.3.5,2.5,1.6,3.6s2.3,1.6,3.6,1.6c1.3,0,2.5-.7,3.7-1.9s1.8-2.4,1.9-3.7c0-1.3-.5-2.5-1.6-3.6Z" fill="#2797c8"/><path d="m160.6,65.2l8.1-5.3c.2-.1.3-.2.3-.4,0-.1,0-.3,0-.5l.3-.2,1.5,2.3-.3.2c-.1-.2-.2-.3-.4-.3-.1,0-.3,0-.5.2l-10.3,6.7c-.2.1-.3.2-.3.4,0,.1,0,.3,0,.5l-.3.2-1.6-2.5.3-.2c.2.3.3.4.4.3.1,0,.2-.2.2-.2s0-.2,0-.2l4.6-12.9-9.2,6c-.2.1-.3.2-.3.4,0,.1,0,.3,0,.5l-.3.2-1.5-2.3.3-.2c.1.2.2.3.4.3.1,0,.3,0,.5-.2l10.3-6.7c.2-.1.3-.2.3-.4s0-.3,0-.5l.3-.2,2.2,3.3-.3.2c0-.1-.2-.2-.2-.3,0,0-.2,0-.2,0,0,0,0,0-.1.1,0,0,0,.1,0,.2l-4.1,11.4h0Z" fill="#2797c8"/><path d="m31.6,140.3c-.2,0-.4,0-.6.1s-.4,0-.4.2c-.2.1-.2.3,0,.5l-.3.2-1.6-2.4.3-.2c0,0,.1.1.2.2s.1,0,.2,0,.3,0,.4,0c.2,0,.4,0,.7-.1l11.4-2.6c.3,0,.6-.1.7-.2.2,0,.3,0,.4-.1.2-.1.2-.3,0-.5l.3-.2,1.9,2.8-.3.2c-.1-.2-.3-.2-.5-.1,0,0-.2.2-.3.3,0,.2-.2.4-.4.7l-6.4,9.7c-.2.3-.3.5-.4.7s-.2.3-.2.4c0,.1,0,.2,0,.3s0,.2.2.3l-.3.2-1.8-2.7.3-.2c.1.2.2.2.3.3s.2,0,.3,0c0,0,.1-.1.2-.2,0,0,.2-.3.4-.6l1.3-1.9-3.7-5.5-2.2.5Zm6.9,3.3l3.8-5.7-6.6,1.5,2.8,4.2Z" fill="#2797c8"/><path d="m47.6,156.9l6.9-6.8c.1-.1.2-.3.3-.4s0-.3-.2-.4l.2-.2,2,2-.2.2c-.2-.2-.3-.2-.4-.2-.1,0-.3.1-.4.2l-8.8,8.6c-.1.1-.2.3-.3.4s0,.3.2.4l-.2.2-2.1-2.1.2-.2c.2.2.4.3.5.2,0,0,.1-.2.2-.3,0-.1,0-.2,0-.2l2-13.6-7.9,7.7c-.1.1-.2.3-.3.4s0,.3.2.4l-.2.2-2-2,.2-.2c.2.2.3.2.4.2.1,0,.3-.1.4-.2l8.8-8.6c.1-.1.2-.3.3-.4s0-.3-.2-.4l.2-.2,2.8,2.8-.2.2c-.1-.1-.2-.2-.3-.2s-.2,0-.2,0c0,0,0,0,0,.2,0,0,0,.1,0,.2l-1.8,12h0Z" fill="#2797c8"/><path d="m57,152.3c.1-.2.2-.3.2-.5,0-.1,0-.3-.3-.4l.2-.3,6,4c.8.5,1.4,1.2,1.9,1.9.4.7.7,1.5.8,2.3,0,.8,0,1.7-.2,2.6-.2.9-.7,1.8-1.2,2.6-.6.9-1.2,1.6-1.9,2.2-.7.6-1.4,1-2.2,1.3-.8.3-1.5.3-2.3.2s-1.6-.4-2.4-1l-6.3-4.3.2-.3c.2.1.3.2.5.1s.2-.2.4-.3l6.9-10.2Zm-.7,13.4c1.1.8,2.2,1,3.3.6,1.1-.4,2.1-1.3,3.1-2.7s1.4-2.8,1.2-4-.8-2.2-2-3l-3.7-2.5-6,8.8,4.1,2.8Z" fill="#2797c8"/><path d="m78.1,162.4c1,.3,1.8.8,2.5,1.3.7.6,1.3,1.3,1.7,2,.4.8.6,1.7.7,2.6,0,1-.1,2-.5,3.1-.4,1.1-.9,2-1.5,2.8s-1.3,1.3-2.1,1.7c-.8.4-1.6.6-2.5.6-.9,0-1.8-.2-2.8-.5s-1.8-.8-2.5-1.3c-.7-.6-1.3-1.2-1.7-2-.4-.8-.6-1.7-.7-2.6,0-1,.1-2,.5-3.1.4-1.1.9-2,1.5-2.8s1.3-1.3,2.1-1.7c.8-.4,1.6-.6,2.6-.6.9,0,1.8.1,2.8.4Zm-.6,1.7c-1.5-.5-2.8-.4-3.9.2-1.1.6-2,1.8-2.5,3.4-.5,1.6-.6,3,0,4.2s1.5,2,3,2.5,2.8.4,3.9-.2c1.1-.6,2-1.8,2.5-3.4s.6-3,0-4.2c-.5-1.2-1.5-2-3-2.5Z" fill="#2797c8"/><path d="m84.4,165.6c0-.2,0-.4,0-.5,0-.1-.2-.2-.4-.2v-.3s3.1.4,3.1.4v.3c-.3,0-.4,0-.5.1,0,.1-.2.3-.2.5l-1.2,8.6c-.1,1,0,1.8.7,2.3.6.5,1.5.8,2.8,1,1.3.2,2.3,0,3-.2.7-.3,1.1-1,1.3-2l1.2-8.6c0-.2,0-.4,0-.5,0-.1-.2-.2-.4-.2v-.3s3.1.4,3.1.4v.3c-.3,0-.4,0-.5.1,0,.1-.2.3-.2.5l-1.1,8c-.1,1.1-.4,1.9-.8,2.6-.4.6-.8,1.1-1.4,1.5-.6.3-1.2.5-1.9.5-.7,0-1.6,0-2.5-.1-.9-.1-1.7-.3-2.4-.5-.7-.2-1.3-.6-1.7-1-.4-.5-.8-1-.9-1.8-.2-.7-.2-1.6,0-2.7l1.1-8Z" fill="#2797c8"/><path d="m100.1,179.3c0,.2,0,.4.1.5s.2.2.4.2v.3s-3.1.1-3.1.1v-.3c.2,0,.3,0,.4-.2s.1-.3,0-.5l-.5-12.3c0-.2,0-.4-.1-.5s-.2-.2-.4-.2v-.3s7.8-.3,7.8-.3c1.5,0,2.6.2,3.3.9s1.1,1.6,1.1,2.9c0,1.1-.2,2-.7,2.7s-1.3,1.1-2.5,1.4l3.1,5.2c.2.3.3.5.4.6s.3.1.5.1v.3s-3.3.1-3.3.1v-.3c.2,0,.3,0,.4,0,0,0,0-.1,0-.2,0-.1,0-.2-.1-.3l-3.1-5.2-4.3.2.2,5.2Zm4.8-7.2c.9,0,1.6-.3,2-.7.4-.4.5-1,.5-1.7s0-.7-.2-.9c0-.2-.2-.5-.4-.6-.2-.2-.5-.3-.8-.3-.4,0-.8,0-1.3,0l-5,.2.2,4.4,5.1-.2Z" fill="#2797c8"/><path d="m116.9,164.7c-.2,0-.3.1-.4.3,0,.1,0,.3,0,.6l2.5,11.1,7.6-1.7c.5-.1.7-.4.6-1h.3c0,0,.7,3,.7,3h-.3c0-.3-.4-.4-.9-.3l-10.1,2.3v-.3c.1,0,.3-.1.3-.3,0-.1,0-.3,0-.5l-2.7-12c0-.2-.1-.3-.2-.4-.1,0-.3-.1-.5,0v-.3c0,0,2.9-.7,2.9-.7v.3Z" fill="#2797c8"/><path d="m129.2,175.5c.2,0,.3-.2.4-.3,0-.1,0-.3,0-.5l-4.1-11.6c0-.2-.2-.3-.3-.4-.1,0-.3,0-.5,0v-.3c-.1,0,2.8-1,2.8-1v.3c0,0-.2.2-.3.3,0,.1,0,.3,0,.5l4.1,11.6c0,.2.2.3.3.4.1,0,.3,0,.5,0v.3c.1,0-2.8,1-2.8,1v-.3Z" fill="#2797c8"/><path d="m138.9,171.6c.2-.1.3-.2.3-.3s0-.2,0-.3c0-.1-.1-.2-.2-.2,0,0-.1-.1-.2-.2l-9.5-8.3c-.3-.3-.6-.4-.7-.5-.2,0-.3,0-.5,0v-.3c-.1,0,2.8-1.5,2.8-1.5v.3c-.2.2-.3.4-.2.7,0,0,0,.1.2.2,0,0,.1.1.2.2l8.4,7.4-1.4-11c0,0,0-.2,0-.3s0-.1,0-.2c0-.1-.2-.2-.3-.2-.1,0-.3,0-.5.1v-.3c-.1,0,2.8-1.5,2.8-1.5v.3c0,.1-.2.2-.2.4,0,.2,0,.5,0,.8l1.5,12.4s0,.1,0,.3c0,.1,0,.3,0,.3,0,0,.1.1.2.2s.2,0,.4-.1v.3c.1,0-3,1.6-3,1.6l-.2-.3Z" fill="#2797c8"/><path d="m141,155.6c-.1-.2-.3-.2-.4-.3s-.3,0-.5.2l-.2-.2,7.5-6.3c.3-.3.5-.5.5-.6,0-.1,0-.3-.1-.4l.2-.2,2,2.4-.2.2c-.2-.2-.3-.3-.5-.3-.2,0-.4,0-.7.3l-5.5,4.7,2.8,3.3,3.6-3c.2-.2.4-.4.4-.6,0-.2,0-.4-.2-.6l.2-.2,2.1,2.5-.2.2c-.2-.2-.3-.3-.5-.3-.2,0-.4.1-.6.3l-3.6,3.1,3,3.5,5.9-5c.2-.2.4-.4.4-.6s0-.4-.3-.7l.2-.2,2.1,2.5-.2.2c-.2-.3-.5-.2-1,.1l-8,6.7-.2-.2c.2-.1.2-.3.2-.4,0-.1,0-.3-.2-.4l-7.9-9.4Z" fill="#2797c8"/><path d="m157.1,153.1c0,.1.1.2.2.3.2.2.5.2.9.2s.8-.2,1.2-.4c.4-.2.9-.5,1.4-.8.5-.4.9-.8,1.2-1.2.9-1.2,1.4-2.2,1.4-3,0-.8-.3-1.5-.9-2-.3-.2-.6-.4-.9-.4-.3,0-.6,0-.9.2-.3.1-.6.3-.8.6-.3.3-.5.6-.8.9-.4.6-.9,1.2-1.4,1.8-.5.6-1,1.1-1.6,1.5s-1.2.6-1.9.6c-.7,0-1.4-.3-2.2-.9-.5-.4-.9-.9-1.1-1.5s-.3-1.2-.3-1.8.2-1.3.5-2c.3-.7.7-1.4,1.2-2.1.4-.5.8-1,1.2-1.3.4-.3.7-.6,1.1-.8.3-.2.6-.4.8-.5.2-.1.4-.2.5-.4.1-.1.2-.3.1-.4s0-.2,0-.3h.3c0-.1,1.7,2.8,1.7,2.8h-.3s-.1,0-.3-.1c0,0-.3,0-.5,0-.3,0-.6.1-.9.3-.3.2-.7.4-1.1.7-.4.3-.7.7-1.1,1.1-.8,1-1.2,1.9-1.3,2.8,0,.9.2,1.5.8,2,.3.2.5.3.8.3s.5,0,.8-.2c.3-.2.5-.4.8-.6.3-.3.5-.6.8-.9.4-.6.9-1.2,1.4-1.8.5-.6,1.1-1.1,1.7-1.5.6-.4,1.3-.6,2-.6.7,0,1.5.3,2.3,1,.5.4.8.8,1.1,1.3.3.5.4,1.1.4,1.8,0,.7-.1,1.4-.4,2.1-.3.7-.7,1.5-1.3,2.3-.5.7-1,1.2-1.5,1.6-.5.4-1,.7-1.4.9-.4.2-.8.4-1.1.5-.3.1-.5.2-.6.4,0,.1-.1.3,0,.6h-.3c0,0-1.7-2.8-1.7-2.8h.3Z" fill="#2797c8"/></svg>