<?xml version="1.0" encoding="UTF-8"?><svg id="Layer_1" xmlns="http://www.w3.org/2000/svg" width="2.8in" height="2.8in" viewBox="0 0 200 200"><circle cx="99.1" cy="100" r="69.1" fill="none" stroke="#28a9e1" stroke-miterlimit="10" stroke-width="3.5"/><path d="m26.6,99.9s72.6,19.3,141.7-3.7" fill="none" stroke="#28a9e1" stroke-miterlimit="10" stroke-width="3.5"/><path d="m50.8,50.6s16,19,51.8,19c0,0,22.4,0,44.8-19" fill="none" stroke="#28a9e1" stroke-miterlimit="10" stroke-width="3.5"/><path d="m50.8,149.6s16-19,51.8-19c0,0,22.4,0,44.8,19" fill="none" stroke="#28a9e1" stroke-miterlimit="10" stroke-width="3.5"/><path d="m97.4,30.9s-38.7,19.4-37.7,68.8c0,0-.3,45.6,39,69.4" fill="none" stroke="#28a9e1" stroke-miterlimit="10" stroke-width="3.5"/><path d="m100,31s38.7,19.4,37.7,68.8c0,0,.5,45.4-39,69.4" fill="none" stroke="#28a9e1" stroke-miterlimit="10" stroke-width="3.5"/><circle cx="98.8" cy="85.2" r="11" fill="#eadcb8"/><path d="m107.9,112.5c12.6-9.6,15.8-34.6,15.8-34.6-10.6,19.5-17.5,20.7-24.9,21.3-15.8,1.2-24.9-23.3-24.9-23.3-.6,22.1,15.7,37.3,15.7,37.3,0,0,1.2,39.8,7.4,55.9h3.6c5.9-23.4,7.4-56.5,7.4-56.5Z" fill="#eadcb8"/><circle cx="165.6" cy="77.8" r="11" fill="#8cd4da"/><path d="m143.4,77s15,19.2,28.7,14.9c0,0,11.1.4,15.7-14,0,0,2.6,11-7.3,22.9,0,0,0,39.3-45.7,60.6,0,0,30-32.2,29.8-58.5,0,0-14.7-5.3-21.2-25.9Z" fill="#8cd4da"/><circle cx="30.5" cy="77.8" r="11" fill="#28a9e1"/><path d="m56.6,77s-15,19.2-28.7,14.9c0,0-11.1.4-15.7-14,0,0-2.6,11,7.3,22.9,0,0,0,39.3,45.7,60.6,0,0-30-32.2-29.8-58.5,0,0,14.7-5.3,21.2-25.9Z" fill="#28a9e1"/></svg>